<svg width="30" height="30" viewBox="0 0 30 30" fill="none" xmlns="http://www.w3.org/2000/svg">
<path d="M12.0914 16.0781C12.664 16.8436 13.3946 17.477 14.2335 17.9353C15.0724 18.3937 16.0001 18.6662 16.9536 18.7345C17.9071 18.8028 18.8642 18.6652 19.7599 18.3311C20.6556 17.997 21.4689 17.4742 22.1447 16.7981L26.1447 12.7981C27.3591 11.5407 28.0311 9.85672 28.0159 8.10874C28.0007 6.36076 27.2996 4.68868 26.0635 3.45262C24.8275 2.21657 23.1554 1.51544 21.4074 1.50025C19.6594 1.48506 17.9754 2.15703 16.7181 3.37141L14.4247 5.65141M17.4247 13.4114C16.8521 12.6459 16.1216 12.0125 15.2827 11.5542C14.4438 11.0958 13.5161 10.8233 12.5625 10.755C11.609 10.6867 10.652 10.8243 9.75628 11.1584C8.86061 11.4925 8.04726 12.0153 7.37141 12.6914L3.37141 16.6914C2.15703 17.9488 1.48506 19.6328 1.50025 21.3808C1.51544 23.1287 2.21657 24.8008 3.45262 26.0369C4.68868 27.2729 6.36076 27.9741 8.10874 27.9892C9.85672 28.0044 11.5407 27.3325 12.7981 26.1181L15.0781 23.8381" stroke="#1E1E1E" stroke-width="3" stroke-linecap="round" stroke-linejoin="round"/>
</svg>
